<mxfile host="65bd71144e" modified="2021-01-09T18:20:07.114Z" agent="5.0 (Windows NT 10.0; Win64; x64) AppleWebKit/537.36 (KHTML, like Gecko) Code/1.52.1 Chrome/83.0.4103.122 Electron/9.3.5 Safari/537.36" etag="JSMEzs8yNZAjCZgog8C3" version="13.10.0" type="embed">
    <diagram id="I3wex4niQxwdPpj7cyRc" name="Page-1">
        <mxGraphModel dx="825" dy="479" grid="1" gridSize="10" guides="1" tooltips="1" connect="1" arrows="1" fold="1" page="1" pageScale="1" pageWidth="1169" pageHeight="827" math="0" shadow="0">
            <root>
                <mxCell id="0"/>
                <mxCell id="1" parent="0"/>
                <mxCell id="1wxJ6Ee9MIY7df9GgSbu-2" value="Invoices" style="rounded=0;arcSize=10;whiteSpace=wrap;html=1;align=center;" parent="1" vertex="1">
                    <mxGeometry x="470" y="150" width="100" height="40" as="geometry"/>
                </mxCell>
                <mxCell id="1wxJ6Ee9MIY7df9GgSbu-6" value="Offer" style="rounded=0;arcSize=10;whiteSpace=wrap;html=1;align=center;" parent="1" vertex="1">
                    <mxGeometry x="140" y="140" width="100" height="40" as="geometry"/>
                </mxCell>
                <mxCell id="1wxJ6Ee9MIY7df9GgSbu-10" value="&lt;span lang=&quot;PL&quot; style=&quot;font-size: 11.0pt ; line-height: 107% ; font-family: &amp;#34;calibri&amp;#34; , sans-serif&quot;&gt;Product&lt;/span&gt;" style="rounded=0;arcSize=10;whiteSpace=wrap;html=1;align=center;" parent="1" vertex="1">
                    <mxGeometry x="250" y="250" width="100" height="40" as="geometry"/>
                </mxCell>
                <mxCell id="1wxJ6Ee9MIY7df9GgSbu-12" value="Clients" style="rounded=0;arcSize=10;whiteSpace=wrap;html=1;align=center;" parent="1" vertex="1">
                    <mxGeometry x="715" y="150" width="100" height="40" as="geometry"/>
                </mxCell>
                <mxCell id="1wxJ6Ee9MIY7df9GgSbu-18" value="" style="endArrow=ERmandOne;html=1;rounded=0;exitX=0.5;exitY=1;exitDx=0;exitDy=0;entryX=0.5;entryY=0;entryDx=0;entryDy=0;startArrow=ERoneToMany;startFill=0;endFill=0;edgeStyle=orthogonalEdgeStyle;curved=1;" parent="1" source="1wxJ6Ee9MIY7df9GgSbu-10" target="13" edge="1">
                    <mxGeometry relative="1" as="geometry">
                        <mxPoint x="232.5" y="360" as="sourcePoint"/>
                        <mxPoint x="300" y="320" as="targetPoint"/>
                    </mxGeometry>
                </mxCell>
                <mxCell id="1wxJ6Ee9MIY7df9GgSbu-28" value="" style="edgeStyle=orthogonalEdgeStyle;fontSize=12;html=1;endArrow=ERoneToMany;startArrow=ERoneToMany;exitX=1;exitY=0.5;exitDx=0;exitDy=0;entryX=0;entryY=0.5;entryDx=0;entryDy=0;startFill=0;curved=1;" parent="1" source="1wxJ6Ee9MIY7df9GgSbu-2" target="1wxJ6Ee9MIY7df9GgSbu-12" edge="1">
                    <mxGeometry width="100" height="100" relative="1" as="geometry">
                        <mxPoint x="640" y="200" as="sourcePoint"/>
                        <mxPoint x="630" y="240" as="targetPoint"/>
                    </mxGeometry>
                </mxCell>
                <mxCell id="1wxJ6Ee9MIY7df9GgSbu-32" value="Price per unit" style="ellipse;whiteSpace=wrap;html=1;align=center;" parent="1" vertex="1">
                    <mxGeometry x="80" y="60" width="100" height="40" as="geometry"/>
                </mxCell>
                <mxCell id="1wxJ6Ee9MIY7df9GgSbu-33" value="Units in stock" style="ellipse;whiteSpace=wrap;html=1;align=center;" parent="1" vertex="1">
                    <mxGeometry x="200" y="60" width="100" height="40" as="geometry"/>
                </mxCell>
                <mxCell id="1wxJ6Ee9MIY7df9GgSbu-34" value="" style="endArrow=none;html=1;rounded=0;entryX=0.25;entryY=0;entryDx=0;entryDy=0;exitX=0.5;exitY=1;exitDx=0;exitDy=0;" parent="1" source="1wxJ6Ee9MIY7df9GgSbu-32" target="1wxJ6Ee9MIY7df9GgSbu-6" edge="1">
                    <mxGeometry relative="1" as="geometry">
                        <mxPoint x="35" y="210" as="sourcePoint"/>
                        <mxPoint x="195" y="210" as="targetPoint"/>
                    </mxGeometry>
                </mxCell>
                <mxCell id="1wxJ6Ee9MIY7df9GgSbu-35" value="" style="endArrow=none;html=1;rounded=0;entryX=0.75;entryY=0;entryDx=0;entryDy=0;exitX=0.5;exitY=1;exitDx=0;exitDy=0;" parent="1" source="1wxJ6Ee9MIY7df9GgSbu-33" target="1wxJ6Ee9MIY7df9GgSbu-6" edge="1">
                    <mxGeometry relative="1" as="geometry">
                        <mxPoint x="250" y="100" as="sourcePoint"/>
                        <mxPoint x="265" y="140" as="targetPoint"/>
                    </mxGeometry>
                </mxCell>
                <mxCell id="1wxJ6Ee9MIY7df9GgSbu-36" value="" style="fontSize=12;html=1;endArrow=ERzeroToOne;startArrow=ERmandOne;entryX=0.5;entryY=1;entryDx=0;entryDy=0;exitX=0.25;exitY=0;exitDx=0;exitDy=0;startFill=0;edgeStyle=orthogonalEdgeStyle;curved=1;" parent="1" source="1wxJ6Ee9MIY7df9GgSbu-10" target="1wxJ6Ee9MIY7df9GgSbu-6" edge="1">
                    <mxGeometry width="100" height="100" relative="1" as="geometry">
                        <mxPoint x="170" y="200" as="sourcePoint"/>
                        <mxPoint x="175" y="170" as="targetPoint"/>
                    </mxGeometry>
                </mxCell>
                <mxCell id="1wxJ6Ee9MIY7df9GgSbu-38" value="" style="edgeStyle=none;rounded=0;orthogonalLoop=1;jettySize=auto;html=1;startArrow=none;startFill=0;endArrow=none;endFill=0;entryX=0.5;entryY=0;entryDx=0;entryDy=0;exitX=0.5;exitY=1;exitDx=0;exitDy=0;" parent="1" source="1wxJ6Ee9MIY7df9GgSbu-37" target="1wxJ6Ee9MIY7df9GgSbu-2" edge="1">
                    <mxGeometry relative="1" as="geometry">
                        <mxPoint x="590" y="110" as="sourcePoint"/>
                    </mxGeometry>
                </mxCell>
                <mxCell id="1wxJ6Ee9MIY7df9GgSbu-37" value="Date" style="ellipse;whiteSpace=wrap;html=1;align=center;rounded=0;strokeColor=#FFFFFF;" parent="1" vertex="1">
                    <mxGeometry x="470" y="70" width="100" height="40" as="geometry"/>
                </mxCell>
                <mxCell id="1wxJ6Ee9MIY7df9GgSbu-44" value="has been issued for" style="text;html=1;align=center;verticalAlign=middle;resizable=0;points=[];autosize=1;" parent="1" vertex="1">
                    <mxGeometry x="570" y="150" width="120" height="20" as="geometry"/>
                </mxCell>
                <mxCell id="1wxJ6Ee9MIY7df9GgSbu-45" value="is recipient of" style="text;html=1;align=center;verticalAlign=middle;resizable=0;points=[];autosize=1;" parent="1" vertex="1">
                    <mxGeometry x="625" y="170" width="90" height="20" as="geometry"/>
                </mxCell>
                <mxCell id="4" value="" style="fontSize=12;html=1;endArrow=ERmandOne;startArrow=ERoneToMany;startFill=0;endFill=0;exitX=0.5;exitY=0;exitDx=0;exitDy=0;entryX=0.5;entryY=1;entryDx=0;entryDy=0;edgeStyle=orthogonalEdgeStyle;curved=1;" parent="1" source="17" target="1wxJ6Ee9MIY7df9GgSbu-2" edge="1">
                    <mxGeometry width="100" height="100" relative="1" as="geometry">
                        <mxPoint x="310" y="360" as="sourcePoint"/>
                        <mxPoint x="310" y="220" as="targetPoint"/>
                    </mxGeometry>
                </mxCell>
                <mxCell id="5" value="Consists of" style="text;html=1;align=center;verticalAlign=middle;resizable=0;points=[];autosize=1;" parent="1" vertex="1">
                    <mxGeometry x="525" y="190" width="70" height="20" as="geometry"/>
                </mxCell>
                <mxCell id="6" value="Is part of" style="text;html=1;align=center;verticalAlign=middle;resizable=0;points=[];autosize=1;" parent="1" vertex="1">
                    <mxGeometry x="525" y="230" width="60" height="20" as="geometry"/>
                </mxCell>
                <mxCell id="10" value="concerns" style="text;html=1;align=center;verticalAlign=middle;resizable=0;points=[];autosize=1;" parent="1" vertex="1">
                    <mxGeometry x="200" y="180" width="60" height="20" as="geometry"/>
                </mxCell>
                <mxCell id="11" value="is the subject&lt;br&gt;of the offer" style="text;html=1;align=center;verticalAlign=middle;resizable=0;points=[];autosize=1;" parent="1" vertex="1">
                    <mxGeometry x="260" y="210" width="90" height="30" as="geometry"/>
                </mxCell>
                <mxCell id="30" value="" style="rounded=0;orthogonalLoop=1;jettySize=auto;html=1;startArrow=none;startFill=0;endArrow=none;endFill=0;entryX=0.5;entryY=0;entryDx=0;entryDy=0;exitX=0.5;exitY=1;exitDx=0;exitDy=0;" edge="1" parent="1" source="12" target="28">
                    <mxGeometry relative="1" as="geometry">
                        <mxPoint x="450" y="460" as="sourcePoint"/>
                        <mxPoint x="420" y="460" as="targetPoint"/>
                    </mxGeometry>
                </mxCell>
                <mxCell id="12" value="Coverage level" style="rounded=0;arcSize=10;whiteSpace=wrap;html=1;align=center;" vertex="1" parent="1">
                    <mxGeometry x="385" y="400" width="100" height="40" as="geometry"/>
                </mxCell>
                <mxCell id="13" value="Brand" style="rounded=0;arcSize=10;whiteSpace=wrap;html=1;align=center;" vertex="1" parent="1">
                    <mxGeometry x="250" y="400" width="100" height="40" as="geometry"/>
                </mxCell>
                <mxCell id="14" value="Color" style="rounded=0;arcSize=10;whiteSpace=wrap;html=1;align=center;" vertex="1" parent="1">
                    <mxGeometry x="110" y="400" width="100" height="40" as="geometry"/>
                </mxCell>
                <mxCell id="15" value="Type&amp;nbsp;&lt;font color=&quot;#999999&quot; style=&quot;font-size: 8px&quot;&gt;(F/C)&lt;/font&gt;" style="rounded=0;arcSize=10;whiteSpace=wrap;html=1;align=center;" vertex="1" parent="1">
                    <mxGeometry x="50" y="250" width="100" height="40" as="geometry"/>
                </mxCell>
                <mxCell id="20" value="" style="rounded=0;orthogonalLoop=1;jettySize=auto;html=1;endArrow=none;endFill=0;exitX=1;exitY=0.5;exitDx=0;exitDy=0;" edge="1" parent="1" source="17" target="18">
                    <mxGeometry relative="1" as="geometry">
                        <mxPoint x="600" y="280" as="sourcePoint"/>
                    </mxGeometry>
                </mxCell>
                <mxCell id="17" value="Invoice line" style="rounded=0;arcSize=10;whiteSpace=wrap;html=1;align=center;" vertex="1" parent="1">
                    <mxGeometry x="470" y="250" width="100" height="40" as="geometry"/>
                </mxCell>
                <mxCell id="18" value="Price per unit" style="ellipse;whiteSpace=wrap;html=1;align=center;" vertex="1" parent="1">
                    <mxGeometry x="640" y="250" width="100" height="40" as="geometry"/>
                </mxCell>
                <mxCell id="21" value="" style="rounded=0;orthogonalLoop=1;jettySize=auto;html=1;entryX=1;entryY=1;entryDx=0;entryDy=0;endArrow=none;endFill=0;exitX=0;exitY=0;exitDx=0;exitDy=0;" edge="1" parent="1" source="19" target="17">
                    <mxGeometry relative="1" as="geometry">
                        <mxPoint x="654.6446609406726" y="335.85786437626905" as="sourcePoint"/>
                    </mxGeometry>
                </mxCell>
                <mxCell id="19" value="Units" style="ellipse;whiteSpace=wrap;html=1;align=center;" vertex="1" parent="1">
                    <mxGeometry x="640" y="320" width="100" height="40" as="geometry"/>
                </mxCell>
                <mxCell id="22" value="" style="fontSize=12;html=1;endArrow=ERzeroToMany;startArrow=ERoneToMany;startFill=0;endFill=1;exitX=1;exitY=0.5;exitDx=0;exitDy=0;entryX=0;entryY=0.5;entryDx=0;entryDy=0;edgeStyle=orthogonalEdgeStyle;curved=1;" edge="1" parent="1" source="1wxJ6Ee9MIY7df9GgSbu-10" target="17">
                    <mxGeometry width="100" height="100" relative="1" as="geometry">
                        <mxPoint x="480" y="260" as="sourcePoint"/>
                        <mxPoint x="480" y="200" as="targetPoint"/>
                    </mxGeometry>
                </mxCell>
                <mxCell id="23" value="" style="endArrow=ERmandOne;html=1;rounded=0;exitX=0.75;exitY=1;exitDx=0;exitDy=0;entryX=0.25;entryY=0;entryDx=0;entryDy=0;startArrow=ERoneToMany;startFill=0;endFill=0;edgeStyle=orthogonalEdgeStyle;curved=1;" edge="1" parent="1" source="1wxJ6Ee9MIY7df9GgSbu-10" target="12">
                    <mxGeometry relative="1" as="geometry">
                        <mxPoint x="310" y="300" as="sourcePoint"/>
                        <mxPoint x="310" y="350" as="targetPoint"/>
                    </mxGeometry>
                </mxCell>
                <mxCell id="24" value="" style="endArrow=ERmandOne;html=1;rounded=0;exitX=0.25;exitY=1;exitDx=0;exitDy=0;entryX=0.75;entryY=0;entryDx=0;entryDy=0;startArrow=ERoneToMany;startFill=0;endFill=0;edgeStyle=orthogonalEdgeStyle;curved=1;" edge="1" parent="1" source="1wxJ6Ee9MIY7df9GgSbu-10" target="14">
                    <mxGeometry relative="1" as="geometry">
                        <mxPoint x="320" y="310" as="sourcePoint"/>
                        <mxPoint x="320" y="360" as="targetPoint"/>
                    </mxGeometry>
                </mxCell>
                <mxCell id="25" value="" style="endArrow=ERmandOne;html=1;rounded=0;exitX=0;exitY=0.5;exitDx=0;exitDy=0;entryX=1;entryY=0.5;entryDx=0;entryDy=0;startArrow=ERoneToMany;startFill=0;endFill=0;edgeStyle=orthogonalEdgeStyle;curved=1;" edge="1" parent="1" source="1wxJ6Ee9MIY7df9GgSbu-10" target="15">
                    <mxGeometry relative="1" as="geometry">
                        <mxPoint x="330" y="320" as="sourcePoint"/>
                        <mxPoint x="330" y="370" as="targetPoint"/>
                    </mxGeometry>
                </mxCell>
                <mxCell id="26" value="concerns" style="text;html=1;align=center;verticalAlign=middle;resizable=0;points=[];autosize=1;" vertex="1" parent="1">
                    <mxGeometry x="410" y="240" width="60" height="20" as="geometry"/>
                </mxCell>
                <mxCell id="27" value="Is part of" style="text;html=1;align=center;verticalAlign=middle;resizable=0;points=[];autosize=1;" vertex="1" parent="1">
                    <mxGeometry x="350" y="270" width="60" height="20" as="geometry"/>
                </mxCell>
                <mxCell id="28" value="Numeric value" style="ellipse;whiteSpace=wrap;html=1;align=center;" vertex="1" parent="1">
                    <mxGeometry x="385" y="470" width="100" height="40" as="geometry"/>
                </mxCell>
                <mxCell id="29" value="Name" style="ellipse;whiteSpace=wrap;html=1;align=center;" vertex="1" parent="1">
                    <mxGeometry x="510" y="470" width="100" height="40" as="geometry"/>
                </mxCell>
                <mxCell id="31" value="" style="rounded=0;orthogonalLoop=1;jettySize=auto;html=1;startArrow=none;startFill=0;endArrow=none;endFill=0;entryX=1;entryY=1;entryDx=0;entryDy=0;exitX=0.5;exitY=0;exitDx=0;exitDy=0;" edge="1" parent="1" source="29" target="12">
                    <mxGeometry relative="1" as="geometry">
                        <mxPoint x="445" y="450" as="sourcePoint"/>
                        <mxPoint x="445" y="480" as="targetPoint"/>
                    </mxGeometry>
                </mxCell>
                <mxCell id="33" value="Name" style="ellipse;whiteSpace=wrap;html=1;align=center;rounded=0;strokeColor=#FFFFFF;" vertex="1" parent="1">
                    <mxGeometry x="715" y="70" width="100" height="40" as="geometry"/>
                </mxCell>
                <mxCell id="34" value="Surname" style="ellipse;whiteSpace=wrap;html=1;align=center;rounded=0;strokeColor=#FFFFFF;" vertex="1" parent="1">
                    <mxGeometry x="850" y="70" width="100" height="40" as="geometry"/>
                </mxCell>
                <mxCell id="35" value="Address" style="ellipse;whiteSpace=wrap;html=1;align=center;rounded=0;strokeColor=#FFFFFF;" vertex="1" parent="1">
                    <mxGeometry x="850" y="150" width="100" height="40" as="geometry"/>
                </mxCell>
                <mxCell id="36" value="Name" style="ellipse;whiteSpace=wrap;html=1;align=center;rounded=0;strokeColor=#FFFFFF;" vertex="1" parent="1">
                    <mxGeometry x="50" y="310" width="100" height="40" as="geometry"/>
                </mxCell>
                <mxCell id="37" value="Name" style="ellipse;whiteSpace=wrap;html=1;align=center;rounded=0;strokeColor=#FFFFFF;" vertex="1" parent="1">
                    <mxGeometry x="110" y="460" width="100" height="40" as="geometry"/>
                </mxCell>
                <mxCell id="38" value="Name" style="ellipse;whiteSpace=wrap;html=1;align=center;rounded=0;strokeColor=#FFFFFF;" vertex="1" parent="1">
                    <mxGeometry x="250" y="460" width="100" height="40" as="geometry"/>
                </mxCell>
                <mxCell id="39" value="" style="rounded=0;orthogonalLoop=1;jettySize=auto;html=1;startArrow=none;startFill=0;endArrow=none;endFill=0;entryX=0.5;entryY=1;entryDx=0;entryDy=0;exitX=0.5;exitY=0;exitDx=0;exitDy=0;" edge="1" parent="1" source="38" target="13">
                    <mxGeometry relative="1" as="geometry">
                        <mxPoint x="360" y="460" as="sourcePoint"/>
                        <mxPoint x="495" y="450" as="targetPoint"/>
                    </mxGeometry>
                </mxCell>
                <mxCell id="40" value="" style="rounded=0;orthogonalLoop=1;jettySize=auto;html=1;startArrow=none;startFill=0;endArrow=none;endFill=0;entryX=0.5;entryY=1;entryDx=0;entryDy=0;exitX=0.5;exitY=0;exitDx=0;exitDy=0;" edge="1" parent="1" source="37" target="14">
                    <mxGeometry relative="1" as="geometry">
                        <mxPoint x="310" y="470" as="sourcePoint"/>
                        <mxPoint x="310" y="450" as="targetPoint"/>
                    </mxGeometry>
                </mxCell>
                <mxCell id="41" value="" style="rounded=0;orthogonalLoop=1;jettySize=auto;html=1;startArrow=none;startFill=0;endArrow=none;endFill=0;entryX=0.5;entryY=0;entryDx=0;entryDy=0;exitX=0.5;exitY=1;exitDx=0;exitDy=0;" edge="1" parent="1" source="15" target="36">
                    <mxGeometry relative="1" as="geometry">
                        <mxPoint x="445" y="450" as="sourcePoint"/>
                        <mxPoint x="445" y="480" as="targetPoint"/>
                    </mxGeometry>
                </mxCell>
                <mxCell id="42" value="" style="rounded=0;orthogonalLoop=1;jettySize=auto;html=1;startArrow=none;startFill=0;endArrow=none;endFill=0;exitX=0.5;exitY=1;exitDx=0;exitDy=0;entryX=0.5;entryY=0;entryDx=0;entryDy=0;" edge="1" parent="1" source="33" target="1wxJ6Ee9MIY7df9GgSbu-12">
                    <mxGeometry relative="1" as="geometry">
                        <mxPoint x="455" y="460" as="sourcePoint"/>
                        <mxPoint x="710" y="130" as="targetPoint"/>
                    </mxGeometry>
                </mxCell>
                <mxCell id="43" value="" style="rounded=0;orthogonalLoop=1;jettySize=auto;html=1;startArrow=none;startFill=0;endArrow=none;endFill=0;entryX=1;entryY=0;entryDx=0;entryDy=0;exitX=0;exitY=1;exitDx=0;exitDy=0;" edge="1" parent="1" source="34" target="1wxJ6Ee9MIY7df9GgSbu-12">
                    <mxGeometry relative="1" as="geometry">
                        <mxPoint x="465" y="470" as="sourcePoint"/>
                        <mxPoint x="465" y="500" as="targetPoint"/>
                    </mxGeometry>
                </mxCell>
                <mxCell id="44" value="" style="rounded=0;orthogonalLoop=1;jettySize=auto;html=1;startArrow=none;startFill=0;endArrow=none;endFill=0;entryX=1;entryY=0.5;entryDx=0;entryDy=0;exitX=0;exitY=0.5;exitDx=0;exitDy=0;" edge="1" parent="1" source="35" target="1wxJ6Ee9MIY7df9GgSbu-12">
                    <mxGeometry relative="1" as="geometry">
                        <mxPoint x="475" y="480" as="sourcePoint"/>
                        <mxPoint x="475" y="510" as="targetPoint"/>
                    </mxGeometry>
                </mxCell>
                <mxCell id="48" value="" style="edgeStyle=none;rounded=0;orthogonalLoop=1;jettySize=auto;html=1;startArrow=none;startFill=0;endArrow=none;endFill=0;exitX=0;exitY=0.5;exitDx=0;exitDy=0;entryX=1;entryY=0.5;entryDx=0;entryDy=0;" edge="1" parent="1" source="46" target="45">
                    <mxGeometry relative="1" as="geometry">
                        <mxPoint x="860" y="450" as="sourcePoint"/>
                    </mxGeometry>
                </mxCell>
                <mxCell id="49" value="" style="edgeStyle=none;rounded=0;orthogonalLoop=1;jettySize=auto;html=1;startArrow=none;startFill=0;endArrow=none;endFill=0;exitX=0.5;exitY=1;exitDx=0;exitDy=0;entryX=0.5;entryY=0;entryDx=0;entryDy=0;" edge="1" parent="1" source="45" target="47">
                    <mxGeometry relative="1" as="geometry"/>
                </mxCell>
                <mxCell id="45" value="Users" style="rounded=0;arcSize=10;whiteSpace=wrap;html=1;align=center;" vertex="1" parent="1">
                    <mxGeometry x="740" y="394" width="100" height="40" as="geometry"/>
                </mxCell>
                <mxCell id="46" value="Login" style="ellipse;whiteSpace=wrap;html=1;align=center;rounded=0;strokeColor=#FFFFFF;" vertex="1" parent="1">
                    <mxGeometry x="880" y="394" width="100" height="40" as="geometry"/>
                </mxCell>
                <mxCell id="47" value="Password" style="ellipse;whiteSpace=wrap;html=1;align=center;rounded=0;strokeColor=#FFFFFF;" vertex="1" parent="1">
                    <mxGeometry x="740" y="470" width="100" height="40" as="geometry"/>
                </mxCell>
            </root>
        </mxGraphModel>
    </diagram>
</mxfile>